<?xml version="1.0" standalone="no"?>
<!DOCTYPE svg PUBLIC "-//W3C//DTD SVG 20010904//EN"
 "http://www.w3.org/TR/2001/REC-SVG-20010904/DTD/svg10.dtd">
<svg version="1.0" xmlns="http://www.w3.org/2000/svg"
 width="512.000000pt" height="512.000000pt" viewBox="0 0 512.000000 512.000000"
 preserveAspectRatio="xMidYMid meet">
<metadata>
Created by potrace 1.11, written by Peter Selinger 2001-2013
</metadata>
<g transform="translate(0.000000,512.000000) scale(0.100000,-0.100000)"
fill="#000000" stroke="none">
<path d="M0 3526 l0 -966 245 0 245 0 0 335 0 335 228 0 c139 1 250 6 286 13
l59 12 154 474 c105 321 152 482 148 498 -10 43 -126 147 -206 187 -145 70
-141 70 -676 74 l-483 3 0 -965z m765 583 c113 -21 172 -69 200 -161 40 -135
-13 -271 -125 -322 -37 -17 -71 -21 -197 -24 l-153 -4 0 261 0 261 108 0 c60
0 135 -5 167 -11z"/>
<path d="M2065 3875 c-109 -338 -202 -615 -205 -615 -3 0 -68 125 -144 278
l-139 277 -124 -375 c-67 -206 -125 -388 -128 -405 -4 -25 16 -65 124 -250
l129 -220 254 -3 254 -2 183 557 c130 395 186 552 191 538 4 -11 83 -262 175
-558 l168 -537 256 2 255 3 136 340 c75 187 250 620 388 963 l251 622 -259 0
-258 0 -263 -615 c-144 -339 -266 -612 -269 -608 -4 5 -90 281 -191 616 l-184
607 -200 0 -200 0 -200 -615z"/>
<path d="M4387 4478 c-2 -7 -59 -151 -126 -320 l-121 -307 100 -281 c55 -155
100 -283 100 -285 0 -3 -96 -5 -214 -5 l-213 0 -68 -172 c-37 -95 -69 -179
-72 -185 -4 -10 68 -13 340 -13 l346 0 19 -52 c10 -29 39 -108 63 -175 l44
-123 269 0 c210 0 267 3 263 13 -300 800 -720 1913 -722 1915 -1 2 -5 -3 -8
-10z"/>
<path d="M2597 1785 c-132 -49 -333 -277 -453 -514 -32 -65 -64 -111 -103
-150 -93 -93 -240 -181 -301 -181 -34 0 -64 35 -63 72 3 97 130 238 214 238
48 0 63 -22 43 -61 -16 -31 -98 -75 -164 -88 -44 -9 -45 -9 -9 -10 98 -3 219
72 219 136 0 48 -31 68 -104 68 -91 -1 -157 -28 -225 -91 -64 -59 -92 -114
-94 -181 -1 -79 43 -117 139 -117 95 0 205 58 326 173 21 19 40 33 42 30 3 -3
-1 -27 -9 -54 -8 -26 -15 -76 -15 -111 0 -51 4 -68 23 -89 l22 -26 1 88 c0 48
6 101 12 116 l12 28 25 -30 c14 -16 51 -42 83 -58 97 -47 252 -32 252 25 0 13
-3 12 -14 -3 -30 -42 -141 -9 -230 68 l-40 34 70 6 c136 13 244 92 244 178 0
47 -21 64 -79 63 -55 -1 -109 -27 -176 -85 l-49 -44 42 60 c131 189 309 372
405 420 41 20 61 25 69 17 41 -41 -116 -204 -288 -299 -42 -23 -62 -39 -52
-41 54 -10 313 181 355 262 64 124 0 198 -130 151z m-195 -519 c17 -38 -16
-85 -83 -118 -71 -36 -118 -44 -144 -24 -19 14 -19 16 25 62 93 96 178 130
202 80z"/>
<path d="M3400 1678 c-36 -13 -76 -31 -90 -41 l-25 -18 38 6 c25 5 37 4 37 -4
0 -43 -196 -324 -309 -444 -56 -59 -65 -84 -16 -45 27 21 28 21 21 3 -4 -11
-13 -43 -19 -71 -9 -45 -8 -56 7 -78 22 -35 61 -49 109 -42 56 9 106 38 195
110 l79 64 -13 -36 c-20 -55 -17 -116 5 -143 16 -20 28 -24 78 -24 63 1 116
26 215 101 l48 36 -24 -64 c-14 -34 -40 -105 -60 -156 -20 -52 -36 -107 -36
-124 0 -71 77 -136 145 -124 66 13 80 41 247 478 87 227 161 422 164 433 5 14
-6 8 -37 -20 -47 -43 -69 -54 -163 -80 -86 -24 -134 -75 -176 -188 -31 -82
-38 -92 -99 -143 -36 -31 -92 -69 -123 -85 -117 -59 -153 -29 -100 85 48 102
133 222 253 356 62 69 120 139 130 155 42 68 12 104 -72 86 -56 -12 -160 -62
-142 -68 7 -2 21 1 32 6 60 33 16 -60 -122 -254 -109 -154 -190 -238 -293
-305 -74 -48 -129 -68 -159 -56 -61 23 69 257 260 466 100 110 139 161 149
195 15 51 -42 65 -134 33z m520 -398 c0 -5 -2 -10 -4 -10 -3 0 -8 5 -11 10 -3
6 -1 10 4 10 6 0 11 -4 11 -10z m98 -93 c2 -10 -3 -17 -12 -17 -18 0 -29 16
-21 31 9 14 29 6 33 -14z m-123 -112 c0 -35 -31 -47 -51 -20 -18 25 0 57 29
53 17 -2 22 -10 22 -33z m-74 -70 c-1 -15 -24 -12 -29 3 -3 9 2 13 12 10 10
-1 17 -7 17 -13z m74 -145 c3 -5 1 -10 -4 -10 -6 0 -11 5 -11 10 0 6 2 10 4
10 3 0 8 -4 11 -10z"/>
<path d="M1569 1451 c-33 -34 -36 -67 -6 -85 13 -8 24 -7 44 4 38 22 61 65 47
87 -18 30 -51 27 -85 -6z"/>
<path d="M3053 1418 c-11 -13 -30 -42 -42 -65 -60 -120 -270 -353 -319 -353
-23 0 -11 27 53 120 52 75 65 101 65 132 0 69 -51 95 -125 64 -35 -15 -222
-192 -213 -202 4 -3 41 27 85 67 98 90 150 126 164 112 7 -7 -6 -29 -39 -69
-81 -97 -112 -152 -112 -200 0 -78 60 -97 141 -45 42 27 144 128 203 201 42
52 -41 -100 -121 -222 -147 -224 -342 -365 -476 -344 -82 13 -155 76 -172 149
-4 15 -11 27 -16 27 -15 0 1 -51 30 -100 71 -121 282 -137 457 -35 62 36 159
129 209 199 62 88 99 167 154 330 27 79 55 153 62 164 15 23 50 42 79 42 22 0
26 20 8 38 -19 19 -53 14 -75 -10z"/>
<path d="M1496 1291 c7 -34 -16 -78 -65 -125 -17 -16 -28 -33 -25 -38 4 -5 20
3 37 19 l30 28 -35 -63 c-147 -268 -393 -492 -540 -492 -92 0 -155 41 -194
125 -17 36 -23 44 -23 27 -2 -60 61 -134 136 -162 182 -68 411 39 585 274 89
120 140 232 146 323 4 61 2 77 -13 93 -27 30 -46 26 -39 -9z"/>
</g>
</svg>
